<?xml version="1.0" encoding="utf-8"?>
<!-- Generator: Adobe Illustrator 25.1.0, SVG Export Plug-In . SVG Version: 6.00 Build 0)  -->
<svg version="1.1" id="Capa_1" xmlns="http://www.w3.org/2000/svg" xmlns:xlink="http://www.w3.org/1999/xlink" x="0px" y="0px"
	 viewBox="0 0 900 478.5" style="enable-background:new 0 0 900 478.5;" xml:space="preserve">
<style type="text/css">
	.st0{fill:#373737;}
	.st1{fill:#FFFFFF;}
	.st2{fill:#00D5AF;}
	.st3{fill:none;stroke:#00D5AF;stroke-width:13;stroke-linecap:round;stroke-miterlimit:10;}
</style>
<rect class="st0" width="900" height="478.5"/>
<g>
	<path class="st1" d="M232.5,246.3L219.2,222h-56.8c-25,0-34.5-10.8-34.5-26.5v-56.8c0-15.8,9.5-26.5,34.5-26.5H235
		c25,0,34.5,10.8,34.5,26.5v56.8c0,14.5-8.1,24.8-28.9,26.4l14,24.5H232.5z M248.7,138.5c0-6.6-4.4-10.1-13.7-10.1h-72.5
		c-9.4,0-13.7,3.6-13.7,10.1v57.1c0,6.6,4.4,10.1,13.7,10.1H235c9.4,0,13.7-3.6,13.7-10.1V138.5z"/>
	<path class="st1" d="M323,222c-25,0-34.5-10.8-34.5-26.5v-83.3h20.7v83.5c0,6.6,4.4,10.1,13.7,10.1h68.2c9.4,0,13.7-3.6,13.7-10.1
		v-83.5h20.7v83.3c0,15.8-5.1,26.5-30.1,26.5H323z"/>
	<path class="st1" d="M446.2,222V112.2H467V222H446.2z"/>
	<path class="st1" d="M488,222V112.2H601v16.2h-92.2v27.5h87.5v16.2h-87.5v33.7H601V222H488z"/>
	<path class="st1" d="M753.9,222l-117.2-85.5V222h-18.1V112.2h17.9l109.4,81.6v-81.6H764V222H753.9z"/>
</g>
<g>
	<path class="st2" d="M187.4,372.9v-99.6h-61.3V256h142.9v17.3h-59.6v99.6H187.4z"/>
	<path class="st2" d="M284.7,372.9V256h22.1v116.9H284.7z"/>
	<path class="st2" d="M329.2,372.9V256h120.2v17.3h-98.1v29.2h93.1v17.3h-93.1v35.9h98.1v17.3H329.2z"/>
	<path class="st2" d="M612.1,372.9l-124.7-91v91h-19.3V256h19.1l116.4,86.8V256h19.3v116.9H612.1z"/>
	<path class="st2" d="M644.4,372.9V256h120.2v17.3h-98.1v29.2h93.1v17.3h-93.1v35.9h98.1v17.3H644.4z"/>
</g>
<line class="st3" x1="285.6" y1="241" x2="757.7" y2="241"/>
</svg>
